<?xml version="1.0" standalone="no"?>
<!DOCTYPE svg PUBLIC "-//W3C//DTD SVG 20010904//EN"
 "http://www.w3.org/TR/2001/REC-SVG-20010904/DTD/svg10.dtd">
<svg version="1.0" xmlns="http://www.w3.org/2000/svg"
 width="512.000000pt" height="512.000000pt" viewBox="0 0 512.000000 512.000000"
 preserveAspectRatio="xMidYMid meet">
<metadata>
Created by potrace 1.16, written by Peter Selinger 2001-2019
</metadata>
<g transform="translate(0.000000,512.000000) scale(0.100000,-0.100000)"
fill="#0295e4" stroke="none">
<path fill="#0295e4" stroke="none" d="M3182 3293 l-443 -447 113 -113 113
-113 326 326 327 327 33 -27 c19 -14 54 -46 79 -71 l45 -45 1 -902 2 -902 -57
-59 -57 -59 -85 81 c-46 44 -87 81 -90 81 -9 0 -223 -217 -227 -230 -3 -9 386
-400 398 -400 3 0 101 96 217 213 l212 212 2 1058 c1 581 0 1058 -2 1060 -2 1
-108 104 -235 230 l-230 227 -442 -447z"/>
<path fill="#0295e4" stroke="none" d="M1396 3502 l-228 -229 -2 -1051 -3
-1051 217 -215 c119 -119 220 -216 226 -216 5 0 99 90 209 200 l200 199 -120
116 c-65 63 -121 115 -124 115 -3 0 -43 -37 -88 -82 l-83 -82 -60 59 -60 59 0
899 0 899 76 72 c42 39 80 71 84 71 5 0 315 -305 689 -678 626 -623 681 -680
681 -710 0 -30 -20 -53 -185 -218 -102 -101 -188 -186 -191 -189 -10 -9 -374
365 -374 385 0 11 36 56 87 107 l88 88 -117 117 -117 116 -134 -129 -135 -129
-1 -161 -1 -160 346 -340 c190 -186 351 -340 357 -342 7 -1 167 152 355 341
l344 344 -2 173 -1 173 -841 836 c-462 460 -846 837 -852 839 -6 1 -114 -101
-240 -226z"/>
</g>
</svg>
